<svg xmlns="http://www.w3.org/2000/svg" width="14.028" height="24.41" viewBox="0 0 14.028 24.41">
  <path id="facebook" d="M8.918,24.01H5.073a1.166,1.166,0,0,1-1.165-1.165V14.173H1.665A1.166,1.166,0,0,1,.5,13.008V9.292A1.166,1.166,0,0,1,1.665,8.127H3.908V6.266a6.336,6.336,0,0,1,1.675-4.54A6.035,6.035,0,0,1,10.033,0l2.932,0a1.166,1.166,0,0,1,1.163,1.165V4.62a1.166,1.166,0,0,1-1.164,1.165H10.989c-.6,0-.755.121-.788.158-.054.061-.118.235-.118.714v1.47h2.733a1.184,1.184,0,0,1,.576.146,1.169,1.169,0,0,1,.6,1.019v3.716a1.166,1.166,0,0,1-1.165,1.164H10.083v8.673A1.166,1.166,0,0,1,8.918,24.01ZM5.316,22.6H8.675v-9.06a.779.779,0,0,1,.778-.778h3.129V9.535H9.452a.778.778,0,0,1-.777-.778v-2.1a2.4,2.4,0,0,1,.471-1.645,2.386,2.386,0,0,1,1.843-.634H12.72V1.412l-2.689,0c-2.909,0-4.716,1.862-4.716,4.859V8.757a.779.779,0,0,1-.777.778H1.908v3.23H4.538a.778.778,0,0,1,.777.778Zm7.647-21.19h0Zm0,0" transform="translate(-0.3 0.2)" stroke="#000" stroke-width="0.4"/>
</svg>
