<svg xmlns="http://www.w3.org/2000/svg" width="26" height="17.334" viewBox="0 0 26 17.334">
  <g id="georgia" transform="translate(0 -85.33)">
    <rect id="Rectangle_2251" data-name="Rectangle 2251" width="26" height="17.334" transform="translate(0 85.33)" fill="#f0f0f0"/>
    <g id="Group_11515" data-name="Group 11515" transform="translate(0 85.33)">
      <path id="Path_12004" data-name="Path 12004" d="M14.625,85.33h-3.25v7.042H0v3.25H11.375v7.042h3.25V95.622H26v-3.25H14.625Z" transform="translate(0 -85.33)" fill="#d80027"/>
      <path id="Path_12005" data-name="Path 12005" d="M81,122.47v-1.2h-1.2v1.2h-1.2v1.2h1.2v1.2H81v-1.2h1.2v-1.2Z" transform="translate(-74.652 -119.34)" fill="#d80027"/>
      <path id="Path_12006" data-name="Path 12006" d="M369,122.47v-1.2h-1.2v1.2h-1.2v1.2h1.2v1.2H369v-1.2h1.2v-1.2Z" transform="translate(-348.157 -119.34)" fill="#d80027"/>
      <path id="Path_12007" data-name="Path 12007" d="M81,325.133v-1.2h-1.2v1.2h-1.2v1.2h1.2v1.2H81v-1.2h1.2v-1.2Z" transform="translate(-74.652 -312.126)" fill="#d80027"/>
      <path id="Path_12008" data-name="Path 12008" d="M369,325.133v-1.2h-1.2v1.2h-1.2v1.2h1.2v1.2H369v-1.2h1.2v-1.2Z" transform="translate(-348.157 -312.126)" fill="#d80027"/>
    </g>
  </g>
</svg>
