<svg xmlns="http://www.w3.org/2000/svg" width="79.58" height="76.72" viewBox="25 26.31 79.58 76.72"><g data-name="Group 6"><g data-name="Group 1"><path d="m88.97 30.499-4.564 2.262v3.378l-19.412 9.623-13.652-6.934v13.703l-5.77 2.858V26.31h2.878v4.29l16.548 8.573 19.408-9.21 3.48-1.652L88.97 30.5Z" fill="#fff" fill-rule="evenodd" data-name="Path 1"/><path d="m41 64.219 4.565-2.262v-3.38l19.411-9.622 13.652 6.934V42.187l5.77-2.858v29.078H81.52v-4.29l-16.547-8.573-19.408 9.21-3.482 1.652L41 64.22Z" fill="#fff" fill-rule="evenodd" data-name="Path 2"/></g><g data-name="Group 2"><path d="m37.502 77.066-4.799 6.423-4.799-6.423H25v10.927h2.953v-6.217l4.75 6.063 4.75-6.063v6.217h2.954V77.066h-2.905Z" fill="#fff" fill-rule="evenodd" data-name="Path 3"/><path d="m85.1 77.066-4.798 6.423-4.8-6.423h-2.904v10.927h2.953v-6.217l4.75 6.063 4.75-6.063v6.217h2.954V77.066h-2.904Z" fill="#fff" fill-rule="evenodd" data-name="Path 4"/><path d="M54.815 79.453v-2.387H42.382v10.927h12.433v-2.387h-9.529V83.62h7.806v-2.197h-7.806v-1.969h9.529Z" fill="#fff" fill-rule="evenodd" data-name="Path 5"/><path d="M65.314 77.06h-3.11l-6.092 10.927h3.206l1.215-2.19h6.453l1.216 2.19h3.205l-6.093-10.928Zm.401 6.448h-3.912l1.956-3.525 1.956 3.525Z" fill="#fff" fill-rule="evenodd" data-name="Path 6"/><path d="M98.488 77.06h-3.11l-6.092 10.927h3.205l1.216-2.19h6.452l1.216 2.19h3.205l-6.092-10.928Zm.4 6.448h-3.912l1.956-3.525 1.957 3.525Z" fill="#fff" fill-rule="evenodd" data-name="Path 7"/></g><g data-name="Group 5"><g data-name="Group 4"><g data-name="Group 3"><path d="M56.383 102.41a3.087 3.087 0 0 0 1.905.62 3.612 3.612 0 0 0 .223-.008c1.677-.103 2.887-1.377 2.887-3.186 0-1.106-.453-2.017-1.188-2.582a3.119 3.119 0 0 0-1.922-.625 3.55 3.55 0 0 0-.114.002c-1.135.036-2.066.617-2.567 1.54a3.469 3.469 0 0 0-.4 1.665 3.806 3.806 0 0 0 .062.696c.147.79.544 1.44 1.114 1.877Zm1.905-.27a1.885 1.885 0 0 0 .953-.238c.396-.227.679-.608.835-1.092a3.178 3.178 0 0 0 .142-.974c0-1.36-.694-2.304-1.93-2.304a1.852 1.852 0 0 0-.941.236c-.38.22-.654.585-.81 1.052a3.225 3.225 0 0 0-.15 1.016 3.169 3.169 0 0 0 .164 1.05c.27.768.866 1.255 1.737 1.255Z" fill="#fff" fill-rule="evenodd" data-name="Path 8"/><path d="M63.746 94.116v8.747h-1.152v-8.747h1.152Z" fill="#fff" fill-rule="evenodd" data-name="Path 9"/><path d="M66.468 94.116v8.747h-1.152v-8.747h1.152Z" fill="#fff" fill-rule="evenodd" data-name="Path 10"/><path d="M73.632 99.656v.458h-4.831c.056 1.18.902 2.013 1.985 2.013a2.377 2.377 0 0 0 .702-.096c.512-.158.863-.51 1.069-1.043a2.747 2.747 0 0 0 .09-.277l.957.111c-.256 1.157-1.014 1.93-2.15 2.146a3.644 3.644 0 0 1-.682.061 3.316 3.316 0 0 1-1.742-.461c-.677-.414-1.153-1.089-1.318-1.952a3.705 3.705 0 0 1-.064-.697 3.598 3.598 0 0 1 .413-1.715 2.958 2.958 0 0 1 2.656-1.575 3.242 3.242 0 0 1 1.235.226c1.025.42 1.586 1.378 1.67 2.503a4.032 4.032 0 0 1 .01.298Zm-4.803-.292h3.623a2.15 2.15 0 0 0-.475-1.322 1.526 1.526 0 0 0-.884-.503 1.985 1.985 0 0 0-.376-.035 1.768 1.768 0 0 0-.915.241c-.547.325-.879.94-.973 1.62Z" fill="#fff" fill-rule="evenodd" data-name="Path 11"/><path d="m80.409 99.28-1.014.07c-.084-.93-.578-1.597-1.446-1.755a2.31 2.31 0 0 0-.414-.035 1.777 1.777 0 0 0-1.7 1.127c-.118.274-.19.592-.21.948a3.639 3.639 0 0 0-.005.201 3.058 3.058 0 0 0 .143.96c.133.403.353.724.642.949a1.806 1.806 0 0 0 1.13.368c1.125 0 1.763-.764 1.86-1.832l1.014.097a2.923 2.923 0 0 1-.938 1.997 2.643 2.643 0 0 1-1.278.598 3.553 3.553 0 0 1-.644.056c-1.833 0-3.11-1.263-3.11-3.193 0-1.803 1.115-3.037 2.757-3.19a3.78 3.78 0 0 1 .353-.017 3.197 3.197 0 0 1 1.175.208 2.748 2.748 0 0 1 1.685 2.444Z" fill="#fff" fill-rule="evenodd" data-name="Path 12"/><path d="M81.799 97.63h-.916v-.626l.388-.07a1.372 1.372 0 0 0 .279-.081c.326-.14.434-.398.542-.84a8.113 8.113 0 0 0 .012-.05l.18-.847h.653v1.68h1.708v.833h-1.708v3.68a1.372 1.372 0 0 0 .029.293c.056.255.198.408.445.468a1.173 1.173 0 0 0 .276.03 1.521 1.521 0 0 0 .236-.02 2.801 2.801 0 0 0 .902-.342v.778a2.343 2.343 0 0 1-1.16.49 3.086 3.086 0 0 1-.394.023 1.818 1.818 0 0 1-.73-.133c-.402-.175-.67-.54-.73-1.173a2.976 2.976 0 0 1-.012-.276v-3.818Z" fill="#fff" fill-rule="evenodd" data-name="Path 13"/><path d="m53.174 97.565 1.158-.09a4.31 4.31 0 0 0-.754-2.029c-.477-.658-1.166-1.13-2.055-1.353a5.073 5.073 0 0 0-1.233-.143 4.17 4.17 0 0 0-4.116 3.176A5.27 5.27 0 0 0 46 98.49c0 2.693 1.875 4.54 4.29 4.54a4.778 4.778 0 0 0 1.643-.27c1.306-.476 2.105-1.552 2.356-2.974a5.377 5.377 0 0 0 .038-.25l-1.157-.09c-.189 1.475-1.177 2.556-2.88 2.556a2.877 2.877 0 0 1-2.769-1.897 4.324 4.324 0 0 1-.284-1.502 5.361 5.361 0 0 1-.001-.113 4.438 4.438 0 0 1 .253-1.532c.458-1.245 1.494-1.98 2.8-1.98a3.231 3.231 0 0 1 1.205.215c.932.371 1.495 1.192 1.659 2.22a3.885 3.885 0 0 1 .021.152Z" fill="#fff" fill-rule="evenodd" data-name="Path 14"/></g></g></g></g></svg>