<svg xmlns="http://www.w3.org/2000/svg" width="20" height="20" viewBox="0 0 20 20">
  <g id="Group_161" data-name="Group 161" transform="translate(14.605 -202)">
    <rect id="Rectangle_303" data-name="Rectangle 303" width="20" height="20" transform="translate(-14.605 202)" opacity="0"/>
    <path id="worldwide" d="M7.386,0a7.386,7.386,0,1,0,7.386,7.386A7.382,7.382,0,0,0,7.386,0Zm5.978,5.616a10.734,10.734,0,0,0-3.275-.933,10.732,10.732,0,0,0-.933-3.275A6.25,6.25,0,0,1,13.364,5.616ZM7.386,1.154c.771,0,1.365,2.458,1.517,3.4a20.649,20.649,0,0,0-3.034,0C6.01,3.684,6.605,1.154,7.386,1.154ZM1.154,7.386c0-.771,2.458-1.365,3.4-1.517a20.649,20.649,0,0,0,0,3.034C3.684,8.762,1.154,8.166,1.154,7.386Zm.254,1.769a10.734,10.734,0,0,0,3.275.933,10.732,10.732,0,0,0,.933,3.275A6.25,6.25,0,0,1,1.408,9.155ZM4.683,4.683a10.734,10.734,0,0,0-3.275.933A6.249,6.249,0,0,1,5.616,1.408,10.731,10.731,0,0,0,4.683,4.683Zm2.7,8.934c-.771,0-1.365-2.458-1.517-3.4a20.649,20.649,0,0,0,3.034,0C8.762,11.088,8.166,13.618,7.386,13.618Zm1.66-4.571a19.505,19.505,0,0,1-3.321,0,19.505,19.505,0,0,1,0-3.321,19.505,19.505,0,0,1,3.321,0A19.505,19.505,0,0,1,9.046,9.046Zm.109,4.318a10.733,10.733,0,0,0,.933-3.275,10.732,10.732,0,0,0,3.275-.933A6.25,6.25,0,0,1,9.155,13.364ZM10.215,8.9a20.649,20.649,0,0,0,0-3.034c.873.141,3.4.736,3.4,1.517S11.16,8.75,10.215,8.9Zm0,0" transform="translate(-11.627 204.978)" stroke="#fff" stroke-width="0.4"/>
  </g>
</svg>
