<svg id="instagram" xmlns="http://www.w3.org/2000/svg" width="24.01" height="24.01" viewBox="0 0 24.01 24.01">
  <g id="Group_880" data-name="Group 880" transform="translate(0 0)">
    <g id="Group_879" data-name="Group 879">
      <path id="Path_502" data-name="Path 502" d="M16.507,0h-9A7.5,7.5,0,0,0,0,7.5v9a7.5,7.5,0,0,0,7.5,7.5h9a7.5,7.5,0,0,0,7.5-7.5v-9A7.5,7.5,0,0,0,16.507,0Zm5.252,16.507a5.258,5.258,0,0,1-5.252,5.252h-9a5.258,5.258,0,0,1-5.252-5.252v-9A5.258,5.258,0,0,1,7.5,2.251h9A5.258,5.258,0,0,1,21.759,7.5Z" transform="translate(0 0)"/>
    </g>
  </g>
  <g id="Group_882" data-name="Group 882" transform="translate(6.003 6.003)">
    <g id="Group_881" data-name="Group 881">
      <path id="Path_503" data-name="Path 503" d="M134,128a6,6,0,1,0,6,6A6,6,0,0,0,134,128Zm0,9.754A3.752,3.752,0,1,1,137.754,134,3.757,3.757,0,0,1,134,137.754Z" transform="translate(-128 -128)"/>
    </g>
  </g>
  <g id="Group_884" data-name="Group 884" transform="translate(17.658 4.753)">
    <g id="Group_883" data-name="Group 883">
      <circle id="Ellipse_51" data-name="Ellipse 51" cx="0.8" cy="0.8" r="0.8"/>
    </g>
  </g>
</svg>
