<svg xmlns="http://www.w3.org/2000/svg" width="26.268" height="17.354" viewBox="0 0 26.268 17.354">
  <g id="united-kingdom" transform="translate(0.237 -85.33)">
    <rect id="Rectangle_2255" data-name="Rectangle 2255" width="26.031" height="17.354" transform="translate(0 85.33)" fill="#f0f0f0"/>
    <path id="Path_12009" data-name="Path 12009" d="M14.642,85.33H11.388v7.05H0v3.254H11.388v7.05h3.254v-7.05H26.031V92.38H14.642Z" transform="translate(-0.237)" fill="#d80027"/>
    <g id="Group_11516" data-name="Group 11516" transform="translate(15.845 97.025)">
      <path id="Path_12010" data-name="Path 12010" d="M393.785,315.358l6.01,3.339v-3.339Z" transform="translate(-389.609 -315.358)" fill="#0052b4"/>
      <path id="Path_12011" data-name="Path 12011" d="M311.652,315.358l10.186,5.659v-1.6l-7.306-4.059Z" transform="translate(-311.652 -315.358)" fill="#0052b4"/>
      <path id="Path_12012" data-name="Path 12012" d="M319.125,349.15,311.652,345v4.152Z" transform="translate(-311.652 -343.491)" fill="#0052b4"/>
    </g>
    <path id="Path_12013" data-name="Path 12013" d="M311.652,315.358l10.186,5.659v-1.6l-7.306-4.059Z" transform="translate(-295.807 -218.333)" fill="#f0f0f0"/>
    <path id="Path_12014" data-name="Path 12014" d="M311.652,315.358l10.186,5.659v-1.6l-7.306-4.059Z" transform="translate(-295.807 -218.333)" fill="#d80027"/>
    <g id="Group_11517" data-name="Group 11517" transform="translate(0 97.025)">
      <path id="Path_12015" data-name="Path 12015" d="M4.593,315.356,0,317.908v-2.552Z" transform="translate(0 -315.356)" fill="#0052b4"/>
      <path id="Path_12016" data-name="Path 12016" d="M34.381,329.51v4.939h-8.89Z" transform="translate(-24.195 -328.79)" fill="#0052b4"/>
    </g>
    <path id="Path_12017" data-name="Path 12017" d="M7.306,315.358,0,319.417v1.6H0l10.186-5.659Z" transform="translate(0 -218.333)" fill="#d80027"/>
    <g id="Group_11518" data-name="Group 11518" transform="translate(0 85.33)">
      <path id="Path_12018" data-name="Path 12018" d="M6.01,134.3,0,130.958V134.3Z" transform="translate(0 -128.638)" fill="#0052b4"/>
      <path id="Path_12019" data-name="Path 12019" d="M10.186,90.989,0,85.33v1.6l7.306,4.059Z" transform="translate(0 -85.33)" fill="#0052b4"/>
      <path id="Path_12020" data-name="Path 12020" d="M53.366,85.33l7.473,4.152V85.33Z" transform="translate(-50.653 -85.33)" fill="#0052b4"/>
    </g>
    <path id="Path_12021" data-name="Path 12021" d="M10.186,90.989,0,85.33v1.6l7.306,4.059Z" fill="#f0f0f0"/>
    <path id="Path_12022" data-name="Path 12022" d="M10.186,90.989,0,85.33v1.6l7.306,4.059Z" fill="#d80027"/>
    <g id="Group_11519" data-name="Group 11519" transform="translate(15.845 85.33)">
      <path id="Path_12023" data-name="Path 12023" d="M421.659,149l4.593-2.552V149Z" transform="translate(-416.066 -143.339)" fill="#0052b4"/>
      <path id="Path_12024" data-name="Path 12024" d="M311.652,90.27V85.331h8.89Z" transform="translate(-311.652 -85.331)" fill="#0052b4"/>
    </g>
    <path id="Path_12025" data-name="Path 12025" d="M314.532,90.989l7.306-4.059v-1.6h0l-10.186,5.659Z" transform="translate(-295.807)" fill="#d80027"/>
  </g>
</svg>
